<?xml version="1.0" encoding="UTF-8" standalone="no"?>
<svg
   xmlns:dc="http://purl.org/dc/elements/1.1/"
   xmlns:cc="http://creativecommons.org/ns#"
   xmlns:rdf="http://www.w3.org/1999/02/22-rdf-syntax-ns#"
   xmlns:svg="http://www.w3.org/2000/svg"
   xmlns="http://www.w3.org/2000/svg"
   xmlns:sodipodi="http://sodipodi.sourceforge.net/DTD/sodipodi-0.dtd"
   xmlns:inkscape="http://www.inkscape.org/namespaces/inkscape"
   data-name="Layer 1"
   width="786.82001"
   height="397.91046"
   viewBox="0 0 786.82001 397.91045"
   version="1.1"
   id="svg1648"
   sodipodi:docname="undraw_programming_re_kg9v.svg"
   inkscape:version="1.0.2-2 (e86c870879, 2021-01-15)">
  <metadata
     id="metadata1654">
    <rdf:RDF>
      <cc:Work
         rdf:about="">
        <dc:format>image/svg+xml</dc:format>
        <dc:type
           rdf:resource="http://purl.org/dc/dcmitype/StillImage" />
      </cc:Work>
    </rdf:RDF>
  </metadata>
  <defs
     id="defs1652" />
  <sodipodi:namedview
     pagecolor="#ffffff"
     bordercolor="#666666"
     borderopacity="1"
     objecttolerance="10"
     gridtolerance="10"
     guidetolerance="10"
     inkscape:pageopacity="0"
     inkscape:pageshadow="2"
     inkscape:window-width="1920"
     inkscape:window-height="1017"
     id="namedview1650"
     showgrid="false"
     inkscape:zoom="2.8591284"
     inkscape:cx="372.01917"
     inkscape:cy="263.176"
     inkscape:window-x="1912"
     inkscape:window-y="-8"
     inkscape:window-maximized="1"
     inkscape:current-layer="svg1648"
     inkscape:document-rotation="0" />
  <path
     d="m 0,260.31993 a 289.0029,289.0029 0 0 0 28.12,28.95 l 730.58,1 a 289.0029,289.0029 0 0 0 28.12,-28.95 z"
     fill="#3f3d56"
     id="path1447"
     style="fill:#24242f;fill-opacity:1" />
  <path
     d="m 495.42993,167.62045 v 85.704 a 4.12233,4.12233 0 0 0 4.11906,4.11907 h 127.00449 a 4.12232,4.12232 0 0 0 4.11907,-4.11907 v -85.704 a 4.12433,4.12433 0 0 0 -4.11907,-4.11452 H 499.549 a 4.12434,4.12434 0 0 0 -4.11907,4.11452 z"
     fill="#3f3d56"
     id="path1449"
     style="fill:#20202a;fill-opacity:1" />
  <path
     d="m 498.40939,168.68681 v 83.58039 a 2.20523,2.20523 0 0 0 2.20141,2.20141 h 124.88546 a 2.20522,2.20522 0 0 0 2.20141,-2.20141 v -83.58039 a 2.20621,2.20621 0 0 0 -2.20141,-2.206 H 500.6108 a 2.20623,2.20623 0 0 0 -2.20141,2.206 z"
     fill="#f8c246"
     id="path1451"
     style="fill:#f8c246;fill-opacity:1" />
  <path
     d="m 492.77376,270.039 a 2.46985,2.46985 0 0 0 1.94346,0.92984 h 135.99195 a 2.5024,2.5024 0 0 0 2.44606,-3.0157 l -2.111,-10.02722 a 2.50694,2.50694 0 0 0 -1.55811,-1.81784 2.42467,2.42467 0 0 0 -0.888,-0.1675 H 496.81985 a 2.42446,2.42446 0 0 0 -0.888,0.1675 2.50671,2.50671 0 0 0 -1.55811,1.81784 l -2.111,10.02722 a 2.5005,2.5005 0 0 0 0.51102,2.08586 z"
     fill="#2f2e41"
     id="path1453"
     style="fill:#20202a;fill-opacity:1" />
  <rect
     x="-627.63226"
     y="-260.25952"
     width="4.1884899"
     height="2.5130899"
     rx="0.48819"
     transform="scale(-1)"
     fill="#3f3d56"
     id="rect1455" />
  <rect
     x="-619.25531"
     y="-260.25952"
     width="4.1884899"
     height="2.5130899"
     rx="0.48819"
     transform="scale(-1)"
     fill="#3f3d56"
     id="rect1457" />
  <rect
     x="-610.8783"
     y="-260.25952"
     width="4.1884899"
     height="2.5130899"
     rx="0.48819"
     transform="scale(-1)"
     fill="#3f3d56"
     id="rect1459" />
  <rect
     x="-602.50134"
     y="-260.25952"
     width="4.1884899"
     height="2.5130899"
     rx="0.48819"
     transform="scale(-1)"
     fill="#3f3d56"
     id="rect1461" />
  <rect
     x="-594.12433"
     y="-260.25952"
     width="4.1884899"
     height="2.5130899"
     rx="0.48819"
     transform="scale(-1)"
     fill="#3f3d56"
     id="rect1463" />
  <rect
     x="-585.74738"
     y="-260.25952"
     width="4.1884899"
     height="2.5130899"
     rx="0.48819"
     transform="scale(-1)"
     fill="#3f3d56"
     id="rect1465" />
  <rect
     x="-577.37036"
     y="-260.25952"
     width="4.1884899"
     height="2.5130899"
     rx="0.48819"
     transform="scale(-1)"
     fill="#3f3d56"
     id="rect1467" />
  <rect
     x="-568.99341"
     y="-260.25952"
     width="4.1884899"
     height="2.5130899"
     rx="0.48819"
     transform="scale(-1)"
     fill="#3f3d56"
     id="rect1469" />
  <rect
     x="-560.61646"
     y="-260.25952"
     width="4.1884899"
     height="2.5130899"
     rx="0.48819"
     transform="scale(-1)"
     fill="#3f3d56"
     id="rect1471" />
  <rect
     x="-552.2395"
     y="-260.25952"
     width="4.1884899"
     height="2.5130899"
     rx="0.48819"
     transform="scale(-1)"
     fill="#3f3d56"
     id="rect1473" />
  <rect
     x="-543.86243"
     y="-260.25952"
     width="4.1884899"
     height="2.5130899"
     rx="0.48819"
     transform="scale(-1)"
     fill="#3f3d56"
     id="rect1475" />
  <rect
     x="-535.48553"
     y="-260.25952"
     width="4.1884899"
     height="2.5130899"
     rx="0.48819"
     transform="scale(-1)"
     fill="#3f3d56"
     id="rect1477" />
  <rect
     x="-527.10846"
     y="-260.25952"
     width="4.1884899"
     height="2.5130899"
     rx="0.48819"
     transform="scale(-1)"
     fill="#3f3d56"
     id="rect1479" />
  <rect
     x="-518.73157"
     y="-260.25952"
     width="4.1884899"
     height="2.5130899"
     rx="0.48819"
     transform="scale(-1)"
     fill="#3f3d56"
     id="rect1481" />
  <rect
     x="-510.35455"
     y="-260.25952"
     width="4.1884899"
     height="2.5130899"
     rx="0.48819"
     transform="scale(-1)"
     fill="#3f3d56"
     id="rect1483" />
  <rect
     x="-501.97751"
     y="-260.25952"
     width="4.1884899"
     height="2.5130899"
     rx="0.48819"
     transform="scale(-1)"
     fill="#3f3d56"
     id="rect1485" />
  <rect
     x="-627.73126"
     y="-264.44803"
     width="4.1884899"
     height="2.5130899"
     rx="0.48819"
     transform="scale(-1)"
     fill="#3f3d56"
     id="rect1487" />
  <rect
     x="-619.35425"
     y="-264.44803"
     width="4.1884899"
     height="2.5130899"
     rx="0.48819"
     transform="scale(-1)"
     fill="#3f3d56"
     id="rect1489" />
  <rect
     x="-610.97736"
     y="-264.44803"
     width="4.1884899"
     height="2.5130899"
     rx="0.48819"
     transform="scale(-1)"
     fill="#3f3d56"
     id="rect1491" />
  <rect
     x="-602.60034"
     y="-264.44803"
     width="4.1884899"
     height="2.5130899"
     rx="0.48819"
     transform="scale(-1)"
     fill="#3f3d56"
     id="rect1493" />
  <rect
     x="-594.22333"
     y="-264.44803"
     width="4.1884899"
     height="2.5130899"
     rx="0.48819"
     transform="scale(-1)"
     fill="#3f3d56"
     id="rect1495" />
  <rect
     x="-585.84637"
     y="-264.44803"
     width="4.1884899"
     height="2.5130899"
     rx="0.48819"
     transform="scale(-1)"
     fill="#3f3d56"
     id="rect1497" />
  <rect
     x="-577.46942"
     y="-264.44803"
     width="4.1884899"
     height="2.5130899"
     rx="0.48819"
     transform="scale(-1)"
     fill="#3f3d56"
     id="rect1499" />
  <rect
     x="-569.09241"
     y="-264.44803"
     width="4.1884899"
     height="2.5130899"
     rx="0.48819"
     transform="scale(-1)"
     fill="#3f3d56"
     id="rect1501" />
  <rect
     x="-560.71539"
     y="-264.44803"
     width="4.1884899"
     height="2.5130899"
     rx="0.48819"
     transform="scale(-1)"
     fill="#3f3d56"
     id="rect1503" />
  <rect
     x="-552.33844"
     y="-264.44803"
     width="4.1884899"
     height="2.5130899"
     rx="0.48819"
     transform="scale(-1)"
     fill="#3f3d56"
     id="rect1505" />
  <rect
     x="-543.96143"
     y="-264.44803"
     width="4.1884899"
     height="2.5130899"
     rx="0.48819"
     transform="scale(-1)"
     fill="#3f3d56"
     id="rect1507" />
  <rect
     x="-535.58447"
     y="-264.44803"
     width="4.1884899"
     height="2.5130899"
     rx="0.48819"
     transform="scale(-1)"
     fill="#3f3d56"
     id="rect1509" />
  <rect
     x="-527.20746"
     y="-264.44803"
     width="4.1884899"
     height="2.5130899"
     rx="0.48819"
     transform="scale(-1)"
     fill="#3f3d56"
     id="rect1511" />
  <rect
     x="-518.83051"
     y="-264.44803"
     width="4.1884899"
     height="2.5130899"
     rx="0.48819"
     transform="scale(-1)"
     fill="#3f3d56"
     id="rect1513" />
  <rect
     x="-510.45352"
     y="-264.44803"
     width="4.1884899"
     height="2.5130899"
     rx="0.48819"
     transform="scale(-1)"
     fill="#3f3d56"
     id="rect1515" />
  <rect
     x="-502.07657"
     y="-264.44803"
     width="4.1884899"
     height="2.5130899"
     rx="0.48819"
     transform="scale(-1)"
     fill="#3f3d56"
     id="rect1517" />
  <rect
     x="-587.52173"
     y="-269.47421"
     width="33.507931"
     height="2.5130899"
     rx="0.48819"
     transform="scale(-1)"
     fill="#3f3d56"
     id="rect1519" />
  <rect
     x="515.63104"
     y="184.76619"
     width="5.9658499"
     height="3.12216"
     rx="1.56108"
     fill="#fff"
     id="rect1521"
     style="fill:#65656a;fill-opacity:1" />
  <rect
     x="548.15405"
     y="184.76619"
     width="5.9658499"
     height="3.12216"
     rx="1.56108"
     fill="#fff"
     id="rect1523"
     style="fill:#65656a;fill-opacity:1" />
  <rect
     x="557.3689"
     y="184.76619"
     width="5.9658499"
     height="3.12216"
     rx="1.56108"
     fill="#fff"
     id="rect1525"
     style="fill:#65656a;fill-opacity:1" />
  <rect
     x="524.47742"
     y="184.50594"
     width="20.796129"
     height="3.12216"
     rx="1.56108"
     fill="#fff"
     id="rect1527"
     style="fill:#65656a;fill-opacity:1" />
  <rect
     x="567.84143"
     y="184.50594"
     width="20.796129"
     height="3.12216"
     rx="1.56108"
     fill="#fff"
     id="rect1529"
     style="fill:#65656a;fill-opacity:1" />
  <rect
     x="524.30383"
     y="191.81285"
     width="5.9658499"
     height="3.12216"
     rx="1.56108"
     fill="#fff"
     id="rect1531"
     style="fill:#65656a;fill-opacity:1" />
  <rect
     x="556.82684"
     y="191.81285"
     width="5.9658499"
     height="3.12216"
     rx="1.56108"
     fill="#fff"
     id="rect1533"
     style="fill:#65656a;fill-opacity:1" />
  <rect
     x="566.04175"
     y="191.81285"
     width="5.9658499"
     height="3.12216"
     rx="1.56108"
     fill="#fff"
     id="rect1535"
     style="fill:#65656a;fill-opacity:1" />
  <rect
     x="533.15021"
     y="191.55257"
     width="20.796129"
     height="3.12216"
     rx="1.56108"
     fill="#fff"
     id="rect1537"
     style="fill:#65656a;fill-opacity:1" />
  <rect
     x="576.51422"
     y="191.55257"
     width="20.796129"
     height="3.12216"
     rx="1.56108"
     fill="#fff"
     id="rect1539"
     style="fill:#65656a;fill-opacity:1" />
  <rect
     x="532.97668"
     y="198.85951"
     width="5.9658499"
     height="3.12216"
     rx="1.56108"
     fill="#fff"
     id="rect1541"
     style="fill:#65656a;fill-opacity:1" />
  <rect
     x="565.49969"
     y="198.85951"
     width="5.9658499"
     height="3.12216"
     rx="1.56108"
     fill="#fff"
     id="rect1543"
     style="fill:#65656a;fill-opacity:1" />
  <rect
     x="574.71454"
     y="198.85951"
     width="5.9658499"
     height="3.12216"
     rx="1.56108"
     fill="#fff"
     id="rect1545"
     style="fill:#65656a;fill-opacity:1" />
  <rect
     x="541.82306"
     y="198.59923"
     width="20.796129"
     height="3.12216"
     rx="1.56108"
     fill="#fff"
     id="rect1547"
     style="fill:#65656a;fill-opacity:1" />
  <rect
     x="585.18701"
     y="198.59923"
     width="20.796129"
     height="3.12216"
     rx="1.56108"
     fill="#fff"
     id="rect1549"
     style="fill:#65656a;fill-opacity:1" />
  <rect
     x="541.64948"
     y="205.90617"
     width="5.9658499"
     height="3.12216"
     rx="1.56108"
     fill="#fff"
     id="rect1551"
     style="fill:#65656a;fill-opacity:1" />
  <rect
     x="574.17249"
     y="205.90617"
     width="5.9658499"
     height="3.12216"
     rx="1.56108"
     fill="#fff"
     id="rect1553"
     style="fill:#65656a;fill-opacity:1" />
  <rect
     x="583.38733"
     y="205.90617"
     width="5.9658499"
     height="3.12216"
     rx="1.56108"
     fill="#fff"
     id="rect1555"
     style="fill:#65656a;fill-opacity:1" />
  <rect
     x="550.49585"
     y="205.64589"
     width="20.796129"
     height="3.12216"
     rx="1.56108"
     fill="#fff"
     id="rect1557"
     style="fill:#65656a;fill-opacity:1" />
  <rect
     x="548.15405"
     y="233.92665"
     width="5.9658499"
     height="3.12216"
     rx="1.56108"
     fill="#fff"
     id="rect1559"
     style="fill:#65656a;fill-opacity:1" />
  <rect
     x="557.3689"
     y="233.92665"
     width="5.9658499"
     height="3.12216"
     rx="1.56108"
     fill="#fff"
     id="rect1561"
     style="fill:#65656a;fill-opacity:1" />
  <rect
     x="567.84143"
     y="234.1869"
     width="20.796129"
     height="3.12216"
     rx="1.56108"
     fill="#fff"
     id="rect1563"
     style="fill:#65656a;fill-opacity:1" />
  <rect
     x="515.63104"
     y="233.92665"
     width="5.9658499"
     height="3.12216"
     rx="1.56108"
     fill="#fff"
     id="rect1565"
     style="fill:#65656a;fill-opacity:1" />
  <rect
     x="524.47742"
     y="234.1869"
     width="20.796129"
     height="3.12216"
     rx="1.56108"
     fill="#fff"
     id="rect1567"
     style="fill:#65656a;fill-opacity:1" />
  <rect
     x="524.30383"
     y="226.87999"
     width="5.9658499"
     height="3.12216"
     rx="1.56108"
     fill="#fff"
     id="rect1569"
     style="fill:#65656a;fill-opacity:1" />
  <rect
     x="556.82684"
     y="226.87999"
     width="5.9658499"
     height="3.12216"
     rx="1.56108"
     fill="#fff"
     id="rect1571"
     style="fill:#65656a;fill-opacity:1" />
  <rect
     x="566.04175"
     y="226.87999"
     width="5.9658499"
     height="3.12216"
     rx="1.56108"
     fill="#fff"
     id="rect1573"
     style="fill:#65656a;fill-opacity:1" />
  <rect
     x="533.15021"
     y="227.14027"
     width="20.796129"
     height="3.12216"
     rx="1.56108"
     fill="#fff"
     id="rect1575"
     style="fill:#65656a;fill-opacity:1" />
  <rect
     x="532.97668"
     y="219.83333"
     width="5.9658499"
     height="3.12216"
     rx="1.56108"
     fill="#fff"
     id="rect1577"
     style="fill:#65656a;fill-opacity:1" />
  <rect
     x="565.49969"
     y="219.83333"
     width="5.9658499"
     height="3.12216"
     rx="1.56108"
     fill="#fff"
     id="rect1579"
     style="fill:#65656a;fill-opacity:1" />
  <rect
     x="574.71454"
     y="219.83333"
     width="5.9658499"
     height="3.12216"
     rx="1.56108"
     fill="#fff"
     id="rect1581"
     style="fill:#65656a;fill-opacity:1" />
  <rect
     x="541.82306"
     y="220.09361"
     width="20.796129"
     height="3.12216"
     rx="1.56108"
     fill="#fff"
     id="rect1583"
     style="fill:#65656a;fill-opacity:1" />
  <rect
     x="541.64948"
     y="212.78667"
     width="5.9658499"
     height="3.12216"
     rx="1.56108"
     fill="#fff"
     id="rect1585"
     style="fill:#65656a;fill-opacity:1" />
  <rect
     x="574.17249"
     y="212.78667"
     width="5.9658499"
     height="3.12216"
     rx="1.56108"
     fill="#fff"
     id="rect1587"
     style="fill:#65656a;fill-opacity:1" />
  <rect
     x="583.38733"
     y="212.78667"
     width="5.9658499"
     height="3.12216"
     rx="1.56108"
     fill="#fff"
     id="rect1589"
     style="fill:#65656a;fill-opacity:1" />
  <rect
     x="550.49585"
     y="213.04695"
     width="20.796129"
     height="3.12216"
     rx="1.56108"
     fill="#fff"
     id="rect1591"
     style="fill:#65656a;fill-opacity:1" />
  <path
     d="m 504.91727,316.51073 -13.34954,-21.10162 41.902,-33.40283 17.29534,-19.16107 a 19.16138,19.16138 0 0 1 32.418,6.8279 v 0 a 19.16136,19.16136 0 0 1 -11.57015,23.991 l -27.3488,10.07535 z"
     fill="#ffb6b6"
     id="path1593" />
  <path
     d="m 191.69,163.50993 v 102.56 h 71.85 v -102.56 a 3.448,3.448 0 0 0 -2.43,-3.3 3.1749,3.1749 0 0 0 -1.03,-0.16 h -64.92 a 3.46328,3.46328 0 0 0 -3.47,3.46 z m 28.04,35.24 a 7.67033,7.67033 0 0 1 15.34,0 v 11.9 a 7.6701,7.6701 0 0 1 -15.34,0 z"
     fill="#2f2e41"
     id="path1595"
     style="fill:#2f2e41;fill-opacity:1" />
  <path
     d="m 191.47006,262.79 v 9.89 a 1.94622,1.94622 0 0 0 1.93,1.94 h 68.43 a 1.93972,1.93972 0 0 0 1.93,-1.94 v -9.89 z"
     fill="#3f3d56"
     id="path1597" />
  <path
     d="m 78.66,8.99 v 187.25992 a 9.00714,9.00714 0 0 0 9,9 h 277.5 a 9.0071,9.0071 0 0 0 9,-9 V 8.99 A 9.01147,9.01147 0 0 0 365.16,0 H 87.66 a 9.01151,9.01151 0 0 0 -9,8.99 z"
     fill="#3f3d56"
     id="path1599"
     style="fill:#2f2e41;fill-opacity:1" />
  <path
     d="m 85.17,11.31993 v 182.62 a 4.81833,4.81833 0 0 0 4.81,4.81 h 272.87 a 4.81829,4.81829 0 0 0 4.81,-4.81 v -182.62 a 4.82047,4.82047 0 0 0 -4.81,-4.82 H 89.98 a 4.82051,4.82051 0 0 0 -4.81,4.82 z"
     fill="#fff"
     id="path1601"
     style="fill:#fafafc;fill-opacity:1" />
  <path
     d="m 135.81,273.94993 a 2.9484,2.9484 0 0 0 2.32,1.11 h 162.34 a 2.98725,2.98725 0 0 0 2.92,-3.6 l -2.52,-11.97 a 2.99264,2.99264 0 0 0 -1.86,-2.17 2.89454,2.89454 0 0 0 -1.06,-0.19995 H 140.64 a 2.8943,2.8943 0 0 0 -1.06,0.19995 2.99239,2.99239 0 0 0 -1.86,2.17 l -2.52,11.97 a 2.985,2.985 0 0 0 0.61,2.49 z"
     fill="#2f2e41"
     id="path1603"
     style="fill:#2f2e41;fill-opacity:1" />
  <path
     d="M 353.99451,31.65666 H 98.67115 a 1.0156,1.0156 0 0 1 0,-2.0307 h 255.32336 a 1.0156,1.0156 0 0 1 0,2.0307 z"
     fill="#3f3d56"
     id="path1605"
     style="fill:#24242f;fill-opacity:1" />
  <ellipse
     cx="116.05134"
     cy="18.358767"
     rx="5.9504299"
     ry="6.0830402"
     fill="#3f3d56"
     id="ellipse1607"
     style="fill:#24242f;fill-opacity:1" />
  <ellipse
     cx="136.60736"
     cy="18.358767"
     rx="5.9504299"
     ry="6.0830402"
     fill="#3f3d56"
     id="ellipse1609"
     style="fill:#24242f;fill-opacity:1" />
  <ellipse
     cx="157.16339"
     cy="18.358767"
     rx="5.9504299"
     ry="6.0830402"
     fill="#3f3d56"
     id="ellipse1611"
     style="fill:#24242f;fill-opacity:1" />
  <path
     d="m 341.61637,13.78 h -14.6 a 1.1053,1.1053 0 0 0 0,2.21 h 14.6 a 1.10511,1.10511 0 0 0 0,-2.21 z"
     fill="#3f3d56"
     id="path1613"
     style="fill:#24242f;fill-opacity:1" />
  <path
     d="m 341.61637,17.93 h -14.6 a 1.10527,1.10527 0 0 0 0,2.21 h 14.6 a 1.10508,1.10508 0 0 0 0,-2.21 z"
     fill="#3f3d56"
     id="path1615"
     style="fill:#24242f;fill-opacity:1" />
  <path
     d="m 341.61637,22.07994 h -14.6 a 1.1053,1.1053 0 0 0 0,2.21 h 14.6 a 1.10511,1.10511 0 0 0 0,-2.21 z"
     fill="#3f3d56"
     id="path1617"
     style="fill:#24242f;fill-opacity:1" />
  <path
     d="m 693.59575,267.13038 a 6.41621,6.41621 0 0 0 6.1831,4.331 l 26.49183,-0.68178 a 6.3285,6.3285 0 0 0 5.98085,-4.657 l 3.74888,-40.08721 a 9.79409,9.79409 0 0 0 4.23793,0.87079 9.6613326,9.6613326 0 1 0 -0.4849,-19.31658 8.18393,8.18393 0 0 0 -1.73618,0.18056 6.54764,6.54764 0 0 0 -4.87405,-2.103 l -40.75051,1.05229 a 5.85294,5.85294 0 0 0 -1.00519,0.1248 6.36455,6.36455 0 0 0 -4.87318,8.26464 z m 43.17345,-43.81684 2.66764,-9.55274 a 6.50649,6.50649 0 0 0 0.0204,-3.37458 c 0.12944,-3.4e-4 0.24363,-0.0617 0.37307,-0.062 a 6.91049,6.91049 0 0 1 0.32357,13.81714 6.50527,6.50527 0 0 1 -3.38464,-0.82782 z"
     fill="#2f2e41"
     id="path1619" />
  <path
     d="m 691.38751,206.84423 c 0.86818,4.96412 10.62909,8.45387 22.36585,7.84729 10.79271,-0.49726 19.61745,-4.287 21.23421,-8.7785 a 6.02511,6.02511 0 0 0 -1.84436,-0.24588 l -40.75051,1.05229 a 5.85294,5.85294 0 0 0 -1.00519,0.1248 z"
     fill="#3f3d56"
     id="path1621" />
  <path
     d="m 715.90438,245.10215 a 0.49659,0.49659 0 0 0 0.15091,-0.0664 l 5.75315,-3.76566 a 0.49923,0.49923 0 0 0 3.2e-4,-0.83621 l -5.97978,-3.91667 a 0.49972,0.49972 0 1 0 -0.54792,0.83585 l 5.34091,3.49818 -5.114,3.34794 a 0.49991,0.49991 0 0 0 0.39637,0.903 z"
     fill="#f8c246"
     id="path1623"
     style="fill:#fafafc;fill-opacity:1" />
  <path
     d="m 706.81762,245.52119 a 0.5,0.5 0 0 0 0.12608,-0.91842 l -5.30306,-3.04034 5.1256,-3.80723 a 0.49963695,0.49963695 0 1 0 -0.596,-0.80208 l -5.73862,4.26265 a 0.49951,0.49951 0 0 0 0.0492,0.83476 l 5.96525,3.41968 a 0.4997,0.4997 0 0 0 0.37157,0.051 z"
     fill="#f8c246"
     id="path1625"
     style="fill:#fafafc;fill-opacity:1" />
  <path
     d="m 715.33215,248.40216 a 0.48233,0.48233 0 0 0 0.137,-0.0578 0.49976,0.49976 0 0 0 0.16752,-0.68714 l -8.15548,-13.40836 a 0.50026,0.50026 0 0 0 -0.85442,0.52058 l 8.15548,13.40835 a 0.50035,0.50035 0 0 0 0.5499,0.22442 z"
     fill="#f8c246"
     id="path1627"
     style="fill:#fafafc;fill-opacity:1" />
  <rect
     x="209.38457"
     y="86.856247"
     width="50.719158"
     height="10.8457"
     rx="3.2641699"
     fill="#f8c246"
     id="rect1629" />
  <rect
     x="183.62604"
     y="108.54765"
     width="102.23622"
     height="10.8457"
     rx="3.2641699"
     fill="#e6e6e6"
     id="rect1631"
     style="fill:#65656a;fill-opacity:1" />
  <rect
     x="183.62604"
     y="130.23903"
     width="102.23622"
     height="10.8457"
     rx="3.2641699"
     fill="#e6e6e6"
     id="rect1633"
     style="fill:#65656a;fill-opacity:1" />
  <path
     d="m 296.95299,201.17202 0.2091,0.66346 0.011,0.0222 6.29477,19.2299 7.24125,22.16016 13.62406,41.64441 0.13204,6.4689 v 0.0222 l 1.01245,52.03888 -2.80623,7.05499 3.15839,11.5666 c 0,0 -1.45265,-17.48409 -9.24407,-7.44346 -4.41296,5.70597 -9.57427,11.54454 -13.8112,17.01826 q 9.26071,3.76529 18.81842,6.81168 c 1.37565,0.44235 2.76224,0.86257 4.14886,1.28277 q 0.44564,0.13272 0.89138,0.26538 a 257.44124,258.68306 0 0 0 64.9729,10.49401 c 1.14448,0.0333 2.26703,0.0553 3.35647,0.0774 0.38522,0.0111 0.75935,0.0222 1.13351,0.0222 1.23254,0.0111 2.45408,0.0221 3.68662,0.0221 q 3.73067,0 7.42831,-0.11056 a 257.43154,258.67332 0 0 0 54.11106,-7.35359 c -0.12105,-7.35352 -0.45117,-15.94559 -0.92437,-25.1237 -0.22012,-4.50061 -5.1613,-9.37716 -5.45845,-14.08786 -0.2091,-3.53857 4.2259,-6.86703 3.99478,-10.46088 -1.49665,-22.12703 -3.36749,-13.63305 -4.75412,-29.30219 q -0.2146,-2.30562 -0.39617,-4.41213 c -0.89137,-10.06279 -1.50765,-16.35481 -1.50765,-16.35481 l 5.92064,-37.49759 9.29915,-58.87268 -0.71535,-1.18322 -0.80333,-0.39807 -49.04885,-24.39391 -2.66317,-6.85595 a 10.59118,10.642268 0 0 0 -9.78336,-6.73435 l -32.31037,-0.13268 a 10.545221,10.596089 0 0 0 -8.59489,4.39005 l -8.7488,12.17477 z"
     fill="#3f3d56"
     id="path1635"
     style="fill:#f8c246;fill-opacity:1;stroke-width:0.967016" />
  <path
     d="m 331.78351,275.62536 -7.46238,15.73561 -5.0945,10.74832 -8.76406,45.21612 -4.38767,4.58902 -3.75924,-16.24562 -39.34524,8.60871 c -1.29051,-7.06606 -0.34547,0.23906 -1.14223,-7.51252 0.22444,-0.22118 0.46005,-0.44235 0.69573,-0.66353 0.6284,-0.57504 1.15583,-1.11686 1.14462,-1.63656 -0.44889,-26.73819 0.89771,-72.24182 12.14176,-99.80936 a 59.073641,58.212422 0 0 1 6.91246,-12.7056 c 0.22444,-0.29856 0.43766,-0.59718 0.65088,-0.89568 5.18436,-7.15455 8.46104,-14.19848 13.10679,-19.2077 v -0.0111 a 0.52162964,0.51402494 0 0 0 0.0786,-0.0774 0.15443888,0.15218737 0 0 0 0.0449,-0.0332 l 31.91416,-16.67538 1.36906,37.90673 0.97629,27.24687 z"
     fill="#3f3d56"
     id="path1637"
     style="fill:#f8c246;fill-opacity:1;stroke-width:0.97649" />
  <path
     d="m 443.8014,284.29349 9.476,20.275 3.30742,7.06091 8.90681,46.64162 4.44575,4.72264 3.83039,-16.75524 1.7998,-0.36918 32.4585,-6.72243 9.46058,30.04631 a 17.984,17.984 0 0 0 -3.26122,-22.50556 c -0.64606,-0.58457 -1.18444,-1.15373 -1.16913,-1.69211 0.53847,-32.4431 -1.446,-91.68363 -19.36733,-116.06588 -5.69179,-7.73777 -9.1068,-15.44474 -14.07562,-20.82885 -0.0154,-0.0153 -0.0154,-0.0307 -0.0307,-0.0307 l -12.09124,-19.79812 -0.73836,-1.21533 -0.83066,-0.41528 z"
     fill="#3f3d56"
     id="path1639"
     style="fill:#f8c246;fill-opacity:1" />
  <circle
     id="a657ec4b-47ce-4d2a-9c58-81a811696ca9"
     data-name="Ellipse 5"
     cx="386.39655"
     cy="93.22966"
     r="44.558262"
     fill="#ffb6b6" />
  <path
     d="m 446.62227,62.10591 a 3.75933,3.75933 0 0 0 -2.69,-1.19 l 0.67,-1.86 a 3.52769,3.52769 0 0 0 -3.96,-4.7 l -2.44,0.47 0.23,-1.63 a 3.53387,3.53387 0 0 0 -4.73,-3.82 3.76631,3.76631 0 0 1 -3.24,-0.23 3.84647,3.84647 0 0 1 -1.92,-2.61005 l -0.85,-4.1 -0.09,-0.22 c -4.14,-6.9 -12.1,-11.92 -21.84,-13.76 -8.67005,-1.65 -17.56,-0.81 -26.13,-0.02 -3.4,0.32 -7.24,0.68 -10.44,2.64 -2.72,1.68 -5.02,5.04 -4.55,8.43 -8.45,-2.59 -17.51,2.58 -22,9.1 -5.32,7.76 -6.19,17.48 -6.33,25.08 -0.38,17.98 3.33,32.69 11,43.73 0.56,0.8 0.7,2.47 1.81,3.03 l -0.23,-0.37 c 1.24,0.62 2.5,1.62 2.03,2.69 -1.35,3.08 7.62,9.89 13.94,12.14 11.53,4.11 26.86,3.76 37.64,2.28 l 0.38,-2.55 c 3.89,-0.53 6.63,-1.54 7.4,-3.12 1.36005,-1.16 2.52,-2.2 3.53,-3.16 l 0.01,-0.01 c 0.02,-0.02 0.06,-0.05 0.08,-0.07 4.87,-4.67 6,-7.32995 6.51,-11.37994 0.49,-3.97 -0.38,-8 -1.27,-11.63 18.74,2.9 -7.38,-19.96 10.08,-24.38 a 5.434,5.434 0 0 1 0.61,-0.15 c 0.51,-0.12 1.02,-0.24 1.51,-0.38 a 26.44846,26.44846 0 0 0 6.72,-2.87 c 4.88,-2.97 6.49,-6.91 9.01,-11.35 a 3.42652,3.42652 0 0 0 -0.45,-4.03001 z"
     fill="#2f2e41"
     id="path1642"
     style="fill:#000000;fill-opacity:1" />
  <path
     d="m 543.99227,287.4659 c -0.0105,1.75001 -0.03,4.20002 -0.11001,7.23003 q -0.015,0.63 -0.03,1.29001 c -0.12999,5.57002 -0.26,10.24006 -0.47,15.43005 -0.0105,0.36003 -0.0199,0.71002 -0.04,1.07003 -0.28001,7.24003 -0.72002,15.67006 -1.48005,29.02014 -1.41004,24.66009 -3.87012,3.39001 -6.34019,12.04004 -0.12,0.43 -0.25001,0.94001 -0.37002,1.54002 a 27.916685,27.915948 0 0 1 -1.88005,6.33002 c -1.31004,0.77999 -2.66009,1.53001 -3.99012,2.28002 -3.79012,2.11001 -7.6402,4.13996 -11.52031,6.07002 -2.18014,1.08001 -4.37014,2.14003 -6.57021,3.16001 -0.35001,0.16001 -0.69002,0.32001 -1.03003,0.47001 a 270.89554,270.88838 0 0 1 -34.75108,13.26005 c -2.32007,0.7 -4.63014,1.38001 -6.97021,2.01003 -2.44007,0.67999 -4.88015,1.31999 -7.35022,1.92 a 266.90157,266.89452 0 0 1 -56.09175,7.59003 c -2.55008,0.0799 -5.12015,0.1101 -7.70023,0.1101 -1.28003,0 -2.54008,-0.0105 -3.82012,-0.0189 -0.39002,0 -0.78003,-0.0105 -1.17004,-0.021 -1.13002,-0.03 -2.30006,-0.0501 -3.48011,-0.0799 a 266.67133,266.66429 0 0 1 -67.35208,-10.83005 l -0.93003,-0.26999 c -1.44005,-0.44001 -2.87009,-0.87001 -4.30013,-1.33002 q -9.90038,-3.13501 -19.51061,-7.02003 -7.33522,-2.955 -14.50045,-6.34003 a 0.33862048,0.33861156 0 0 1 -0.12,-0.06 c -1.00003,-0.46001 -2.01006,-0.94001 -3.01009,-1.43002 -0.13001,-0.07 -0.27001,-0.14009 -0.41001,-0.21 q -5.59524,-2.73001 -11.07035,-5.72003 c -3.07008,-7.05007 -7.39023,-8.40002 -10.07031,-14.60007 a 25.874361,25.873678 0 0 1 -1.68006,-5.74001 c 0,-0.021 -0.0105,-0.0398 -0.0105,-0.07 0.28,3.72 -1.19005,-6.60004 -0.0105,-0.0401 -0.0105,-0.11995 -0.0199,-0.25001 -0.03,-0.39999 -0.03,-0.36002 -0.0699,-0.80002 -0.12994,-1.35002 -3.43011,-33.49014 -3.2101,-71.79033 -4.70015,-103.35046 q -0.15006,-3.06004 -0.31,-5.86003 c -0.03,-0.62001 -0.07,-1.23 -0.11006,-1.83001 0.07,-0.17993 0.15001,-0.37001 0.24001,-0.55 a 1.002031,1.0020046 0 0 1 0.07,-0.14994 1.6229902,1.6229474 0 0 1 0.1,-0.17992 c 0.0199,-0.03 0.05,-0.0701 0.07,-0.10003 a 0.9169584,0.91693421 0 0 1 0.0501,-0.10003 c 0.0899,-0.14009 0.18999,-0.28998 0.3,-0.43 0.05,-0.06 0.0899,-0.1101 0.14,-0.16001 a 0.80826504,0.80824373 0 0 1 0.12001,-0.14008 0.63701973,0.63700293 0 0 1 0.11,-0.13002 c 0.04,-0.0401 0.0801,-0.0902 0.13001,-0.13987 a 0.30159934,0.30159139 0 0 1 0.0801,-0.0799 2.033193,2.0331394 0 0 1 0.26002,-0.25001 9.624168,9.6239144 0 0 1 1.14003,-0.89999 c 0.13996,-0.0902 0.29002,-0.17993 0.43002,-0.28002 a 19.135872,19.135368 0 0 1 3.17009,-1.52001 c 0.38002,-0.13988 0.76003,-0.27 1.17005,-0.41 0.14999,-0.0401 0.29,-0.09 0.44,-0.14008 0.22001,-0.07 0.44002,-0.14008 0.67002,-0.18999 1.14004,-0.34 2.37009,-0.62998 3.70012,-0.9 0.16001,-0.03 0.33001,-0.06 0.50001,-0.10003 0.24002,-0.0501 0.49002,-0.09 0.74003,-0.13001 0.34001,-0.06 0.69002,-0.11995 1.04003,-0.17993 2.9701,-0.46999 6.3402,-0.81999 10.06032,-1.04999 q 0.525,-0.03 1.05002,-0.06 c 0.41002,-0.021 0.82003,-0.0401 1.24005,-0.06 0.35001,-0.021 0.71002,-0.03 1.07003,-0.0401 0.35001,-0.021 0.71002,-0.03 1.08003,-0.0401 1.01003,-0.03 2.05006,-0.06 3.1101,-0.0799 3.02008,-0.06 6.20019,-0.0401 9.5403,0.03 1.55004,0.04 3.13009,0.0799 4.75014,0.14994 0.11006,0 0.21001,0.0105 0.31001,0.0105 1.41005,0.0501 2.83009,0.1101 4.29014,0.18999 1.02002,0.0501 2.05005,0.10003 3.08004,0.16001 0.97003,0.06 1.95005,0.11995 2.94009,0.18999 0.77003,0.0401 1.54004,0.10003 2.32007,0.14994 0.66003,0.0501 1.32004,0.10003 1.98006,0.14009 l 0.90003,0.06 c 0.49001,0.0401 0.98002,0.07 1.48005,0.11995 1.10003,0.09 2.20007,0.17993 3.3201,0.27 1.11003,0.10003 2.24007,0.20006 3.37011,0.3 1.13003,0.10003 2.27006,0.21 3.4101,0.31999 0.12,0.0105 0.23,0.021 0.34001,0.03 1.04003,0.1101 2.08006,0.21 3.13009,0.32001 0.24001,0.0189 0.49002,0.0401 0.73002,0.07 1.00113,0.10066 2.02179,0.21833 3.0321,0.32567 0.31006,0.0336 0.61849,0.0658 0.92946,0.0998 0.79142,0.0862 1.57159,0.16085 2.36855,0.25444 1.05003,0.11995 2.12014,0.23 3.1601,0.37002 0.81003,0.09 1.62005,0.17993 2.43007,0.28 1.27005,0.14994 2.56008,0.30999 3.85012,0.48 0.49002,0.06 0.98004,0.11995 1.47005,0.18999 3.68012,0.45999 7.40023,0.96999 11.18035,1.49998 5.73018,0.81001 11.55036,1.69002 17.41053,2.64002 q 8.80537,1.42502 17.71055,3.01001 c 1.50005,0.27002 3.0001,0.54001 4.51013,0.82001 q 1.02005,0.19503 2.04008,0.38995 c 1.16003,0.21 2.32007,0.43 3.48011,0.65 1.16003,0.22 2.32006,0.44001 3.4801,0.67001 1.38005,0.27 2.77009,0.54001 4.15013,0.81001 9.09029,1.8 18.13049,3.72 26.95084,5.73003 1.45004,0.32993 2.90008,0.67001 4.34013,0.99998 q 4.32013,1.00501 8.56027,2.04003 c 0.78002,0.17993 1.55004,0.37001 2.32007,0.56 1.92006,0.48 3.84012,0.95999 5.73017,1.45001 l 0.33001,0.09 c 1.39004,0.34002 2.75009,0.69002 4.11014,1.05002 q 4.81514,1.25999 9.47029,2.55 3.0901,0.85501 6.11019,1.73 c 3.01009,0.87001 5.96018,1.75001 8.83027,2.64002 0.71002,0.22001 1.42004,0.44001 2.12006,0.65001 2.10008,0.65 4.17014,1.31001 6.1802,1.97001 1.60004,0.52001 3.16009,1.05 4.70014,1.58001 q 2.31008,0.79501 4.53014,1.59 c 0.95003,0.34 1.89006,0.7 2.83008,1.04002 1.35005,0.5 2.68009,1 3.98014,1.5 0.4,0.14994 0.79002,0.30998 1.18003,0.46001 0.25001,0.10988 0.49001,0.20006 0.73001,0.29998 0.47002,0.18999 0.95004,0.37 1.41005,0.56 0.47001,0.17993 0.93003,0.37 1.39004,0.57002 0.45002,0.17993 0.91003,0.37 1.35005,0.56 0.45001,0.17992 0.89003,0.37 1.33005,0.57002 0.37001,0.14994 0.73002,0.30998 1.08003,0.46999 0.71002,0.30999 1.42004,0.61999 2.11006,0.94 0.34001,0.16001 0.68002,0.30999 1.02003,0.47 l 0.78002,0.36 c 0.11001,0.06 0.22002,0.11009 0.33001,0.16 0.25002,0.11995 0.51002,0.25001 0.76002,0.36998 0.57997,0.27002 1.15004,0.56002 1.71006,0.83002 0.75002,0.38001 1.48005,0.76001 2.18007,1.13002 0.71002,0.37994 1.40004,0.75999 2.06006,1.12993 0.11001,0.06 0.21001,0.11995 0.32001,0.18014 0.15001,0.0799 0.30001,0.17007 0.45001,0.24999 0.51003,0.29 1.00004,0.59 1.49005,0.87996 0.96003,0.58999 1.87005,1.16999 2.72009,1.75 0.18999,0.13001 0.37001,0.25999 0.56001,0.38 0.63003,0.44999 1.23004,0.89001 1.79006,1.34 0,0.0105 0,0.0105 0.0105,0.0105 0.19,0.13988 0.37,0.28998 0.55001,0.42998 0.15001,0.14009 0.31,0.26002 0.46002,0.40002 0.52001,0.45 1.00002,0.87994 1.44003,1.32001 a 5.6671755,5.667026 0 0 1 0.42002,0.43 1.2084275,1.2083956 0 0 1 0.16001,0.16 c 0.2,0.20006 0.38001,0.4 0.55001,0.59999 a 0.55258711,0.55257253 0 0 1 0.07,0.0902 c 0.24,0.28002 0.46002,0.56001 0.67001,0.84001 0.1,0.14009 0.21,0.27998 0.30001,0.42 0.12001,0.17007 0.24001,0.35 0.34001,0.52001 0.0899,0.14008 0.17001,0.29 0.25001,0.43006 a 7.2568246,7.2566332 0 0 1 0.54002,1.12994 5.2414623,5.2413241 0 0 1 0.27,0.82001 5.844601,5.8444468 0 0 1 0.17009,0.81007 z"
     fill="#2f2e41"
     id="path1644"
     style="fill:#24242f;fill-opacity:1;stroke-width:1.00002" />
  <path
     d="m 543.99227,287.4659 c -0.01,1.75 -0.03,4.2 -0.11,7.23 -0.01,0.42 -0.03,0.85 -0.04,1.29 -0.1,4.25 -0.25,9.5 -0.46,15.43 -0.01,0.36 -0.02,0.71 -0.04,1.07 -0.28,7.24 -0.72,15.67 -1.48,29.02 -1.41,24.66 -3.87,3.39 -6.34,12.04 -6.86,-4.22 -14.38,-8.64 -22.42,-13.18 q -2.175,-1.23 -4.39,-2.47 c -16.08,-8.97 -34.04,-18.37006 -52.79,-27.68 -0.74,-0.37 -1.49,-0.74 -2.23,-1.1 -42.95,-21.23 -89.83,-41.88 -127.81,-55.66 -7.33,-2.66 -14.33,-5.06 -20.91,-7.17005 -13.86,-4.43 -25.84,-7.53 -35.06,-8.87 -9.6,-1.4 -16.23,-0.9 -18.91,1.99 q -0.15006,-3.06 -0.31,-5.86 -0.0601,-0.93 -0.12,-1.83 c 0.0617,-0.16462 0.14191,-0.32172 0.21955,-0.48017 0.0111,-0.0231 0.019,-0.047 0.0304,-0.0698 a 1.002,1.002 0 0 1 0.07,-0.15 1.62294,1.62294 0 0 1 0.1,-0.18 1.05985,1.05985 0 0 1 0.12,-0.2 c 0.09,-0.14 0.19,-0.29 0.3,-0.43 a 3.48261,3.48261 0 0 1 0.26,-0.30005 0.637,0.637 0 0 1 0.11,-0.13 c 0.04,-0.04 0.08,-0.09 0.13,-0.13995 a 0.30159,0.30159 0 0 1 0.08,-0.08 2.03313,2.03313 0 0 1 0.26,-0.25 9.62387,9.62387 0 0 1 1.14,-0.9 c 0.13995,-0.09 0.29,-0.18 0.43,-0.28 a 19.13528,19.13528 0 0 1 3.17,-1.52 c 0.38,-0.14 0.76,-0.27 1.17,-0.41 0.15,-0.04 0.29,-0.09 0.44,-0.14 0.22,-0.07 0.44,-0.14 0.67,-0.19 1.14,-0.34 2.37,-0.63 3.7,-0.9 0.4,-0.08 0.82,-0.16 1.24,-0.23 0.34,-0.06 0.69,-0.12 1.04,-0.18 2.97,-0.47 6.34,-0.82 10.06,-1.05 q 0.525,-0.03 1.05,-0.06 c 0.41,-0.02 0.82,-0.04 1.24,-0.06 0.35,-0.02 0.71,-0.03 1.07,-0.04 0.35,-0.02 0.71,-0.03 1.08,-0.04 1.01,-0.03 2.05,-0.06 3.11,-0.08 3.02,-0.05 6.2,-0.03 9.54,0.04 1.55,0.03 3.13,0.08 4.75,0.15 0.1,0 0.21,0.01 0.31,0.01 1.41,0.04 2.84,0.11 4.29,0.18 1.02,0.05 2.05,0.1 3.07995,0.16 0.97,0.06 1.95,0.12 2.94,0.19 0.77,0.04 1.54,0.1 2.32,0.15 0.66,0.05 1.32,0.1 1.98,0.14 0.79,0.06 1.58,0.12 2.38,0.18 1.1,0.09 2.2,0.18 3.32,0.27 1.11,0.1 2.24,0.2 3.37,0.3 1.13,0.1 2.27,0.21 3.41,0.32 0.12,0.01 0.23,0.02 0.34,0.03 1.04,0.11005 2.08,0.21 3.13,0.32 q 8.73,0.885 17.97,2.07 5.52,0.705 11.18,1.51 c 5.73,0.81 11.55,1.69 17.41,2.63 q 8.80509,1.425 17.71,3.01 c 1.5,0.27 3,0.54 4.51,0.82 q 2.76,0.50994 5.52,1.04 c 1.16,0.22 2.32,0.44 3.48,0.67 1.38,0.27 2.77,0.54 4.15,0.81 9.09,1.8 18.12994,3.72 26.95,5.73 1.45,0.32995 2.9,0.67 4.34,1 q 4.32,1.005 8.56,2.04 c 0.78,0.19 1.55,0.38 2.32,0.57 q 2.895,0.72 5.73,1.44 v 0.01 c 0.11,0.02 0.22,0.05 0.33,0.08 1.38,0.35 2.75,0.7 4.11,1.06 q 4.815,1.26 9.47,2.54 c 2.06,0.57995 4.1,1.15 6.11,1.73 3.01,0.88 5.96,1.76 8.83,2.64 0.71,0.22 1.42,0.44 2.12,0.65 q 3.15,0.99 6.18,1.97 c 1.6,0.52 3.16,1.05 4.7,1.58 q 2.31,0.795 4.53,1.59 c 0.96,0.34 1.9,0.69 2.83,1.03 1.36,0.5 2.68,1 3.98,1.51 0.4,0.15 0.79,0.31 1.18,0.46 0.73,0.28 1.44,0.57 2.14,0.86 0.47,0.18 0.93,0.37 1.39,0.57 0.45,0.18 0.91,0.37 1.35,0.56 0.45,0.18 0.89,0.37 1.33,0.57 0.37,0.15 0.73,0.31 1.08,0.47 0.71,0.31 1.42,0.62 2.11,0.94 0.34,0.16 0.68,0.31 1.02,0.47 l 0.78,0.36 c 0.11,0.06 0.22,0.11 0.33,0.16 0.85,0.4 1.67,0.8 2.47,1.2 0.75,0.38 1.48,0.76 2.18,1.13 0.83,0.43994 1.62,0.87 2.38,1.31 0.15,0.0799 0.3,0.17 0.45,0.25 0.51,0.29 1,0.59 1.49,0.87994 0.96,0.59 1.87,1.17 2.72,1.75 0.84,0.58 1.62,1.15 2.35,1.72 0,0.01 0,0.01 0.01,0.01 0.35,0.28 0.69,0.56 1.01,0.83 0.52,0.45 1,0.87994 1.44,1.32 a 5.667,5.667 0 0 1 0.42,0.43 1.20839,1.20839 0 0 1 0.16,0.16 c 0.21,0.23 0.42,0.46 0.62006,0.69 0.24,0.28 0.46,0.56 0.67,0.84 0.1,0.14 0.21,0.28 0.3,0.42 0.12,0.17 0.24,0.35 0.34,0.52 0.09,0.14 0.17,0.29 0.25,0.43006 a 7.2566,7.2566 0 0 1 0.54,1.12994 6.05312,6.05312 0 0 1 0.27,0.82 5.84442,5.84442 0 0 1 0.16999,0.8101 z"
     opacity="0.2"
     id="path1646" />
</svg>
